<svg width="170" height="170" viewBox="0 0 170 170" fill="none" xmlns="http://www.w3.org/2000/svg">
<rect width="170" height="170" rx="11" fill="#FD4B2D"/>
<path d="M26.704 132V41.632H46.8V132H26.704ZM77.772 132V114.336H100.172C105.633 114.336 110.412 113.269 114.508 111.136C118.604 108.917 121.761 105.717 123.98 101.536C126.199 97.3547 127.308 92.4053 127.308 86.688C127.308 80.9707 126.156 76.064 123.852 71.968C121.633 67.872 118.476 64.7147 114.38 62.496C110.369 60.2773 105.633 59.168 100.172 59.168H77.132V41.632H100.428C107.255 41.632 113.527 42.7413 119.244 44.96C125.047 47.0933 130.081 50.208 134.348 54.304C138.7 58.3147 142.028 63.0933 144.332 68.64C146.721 74.1013 147.916 80.16 147.916 86.816C147.916 93.3867 146.721 99.4453 144.332 104.992C142.028 110.539 138.743 115.317 134.476 119.328C130.209 123.339 125.175 126.453 119.372 128.672C113.655 130.891 107.425 132 100.684 132H77.772ZM64.204 132V41.632H84.3V132H64.204Z" fill="white"/>
</svg>
