<svg width="711" height="170" viewBox="0 0 711 170" fill="none" xmlns="http://www.w3.org/2000/svg">
<rect x="538.717" width="169.283" height="170" rx="11" fill="#FD4B2D"/>
<path d="M565.063 132V41.632H585.159V132H565.063ZM616.131 132V114.336H638.531C643.992 114.336 648.771 113.269 652.867 111.136C656.963 108.917 660.12 105.717 662.339 101.536C664.557 97.3547 665.667 92.4053 665.667 86.688C665.667 80.9707 664.515 76.064 662.211 71.968C659.992 67.872 656.835 64.7147 652.739 62.496C648.728 60.2773 643.992 59.168 638.531 59.168H615.491V41.632H638.787C645.613 41.632 651.885 42.7413 657.603 44.96C663.405 47.0933 668.44 50.208 672.707 54.304C677.059 58.3147 680.387 63.0933 682.691 68.64C685.08 74.1013 686.275 80.16 686.275 86.816C686.275 93.3867 685.08 99.4453 682.691 104.992C680.387 110.539 677.101 115.317 672.835 119.328C668.568 123.339 663.533 126.453 657.731 128.672C652.013 130.891 645.784 132 639.043 132H616.131ZM602.563 132V41.632H622.659V132H602.563Z" fill="white"/>
<path id="test" d="M37.1729 133.28C30.6876 133.28 24.9276 131.915 19.8929 129.184C14.8582 126.368 10.8476 122.528 7.86091 117.664C4.95958 112.8 3.50891 107.253 3.50891 101.024C3.50891 94.88 4.91691 89.4187 7.73291 84.64C10.6342 79.776 14.5596 75.936 19.5089 73.12C24.4582 70.2187 29.9622 68.768 36.0209 68.768C41.9942 68.768 47.2422 70.1333 51.7649 72.864C56.3729 75.5093 59.9569 79.1787 62.5169 83.872C65.1622 88.48 66.4849 93.728 66.4849 99.616C66.4849 100.725 66.3996 101.877 66.2289 103.072C66.1436 104.181 65.9302 105.461 65.5889 106.912L13.6209 107.04V94.496L57.7809 94.368L50.9969 99.616C50.8262 95.9467 50.1436 92.8747 48.9489 90.4C47.8396 87.9253 46.1756 86.048 43.9569 84.768C41.8236 83.4027 39.1782 82.72 36.0209 82.72C32.6929 82.72 29.7916 83.488 27.3169 85.024C24.8422 86.4747 22.9222 88.5653 21.5569 91.296C20.2769 93.9413 19.6369 97.0987 19.6369 100.768C19.6369 104.523 20.3196 107.808 21.6849 110.624C23.1356 113.355 25.1836 115.488 27.8289 117.024C30.4742 118.475 33.5462 119.2 37.0449 119.2C40.2022 119.2 43.0609 118.688 45.6209 117.664C48.1809 116.555 50.3996 114.933 52.2769 112.8L62.1329 122.656C59.1462 126.155 55.4769 128.8 51.1249 130.592C46.8582 132.384 42.2076 133.28 37.1729 133.28ZM102.711 133.28C97.0789 133.28 92.0016 131.872 87.4789 129.056C82.9562 126.24 79.4149 122.4 76.8549 117.536C74.2949 112.672 73.0149 107.211 73.0149 101.152C73.0149 95.008 74.2949 89.504 76.8549 84.64C79.4149 79.776 82.9562 75.936 87.4789 73.12C92.0016 70.304 97.0789 68.896 102.711 68.896C107.148 68.896 111.116 69.792 114.615 71.584C118.114 73.376 120.887 75.8933 122.935 79.136C125.068 82.2933 126.22 85.8773 126.391 89.888V112.16C126.22 116.256 125.068 119.883 122.935 123.04C120.887 126.197 118.114 128.715 114.615 130.592C111.116 132.384 107.148 133.28 102.711 133.28ZM105.783 117.792C110.476 117.792 114.274 116.256 117.175 113.184C120.076 110.027 121.527 105.973 121.527 101.024C121.527 97.7813 120.844 94.9227 119.479 92.448C118.199 89.888 116.364 87.9253 113.975 86.56C111.671 85.1093 108.94 84.384 105.783 84.384C102.711 84.384 99.9802 85.1093 97.5909 86.56C95.2869 87.9253 93.4522 89.888 92.0869 92.448C90.8069 94.9227 90.1669 97.7813 90.1669 101.024C90.1669 104.352 90.8069 107.296 92.0869 109.856C93.4522 112.331 95.2869 114.293 97.5909 115.744C99.9802 117.109 102.711 117.792 105.783 117.792ZM120.631 157.856V116.384L123.319 101.408L120.631 86.432V70.176H137.271V157.856H120.631ZM178.473 133.28C173.012 133.28 168.148 132.128 163.881 129.824C159.7 127.52 156.414 124.32 154.025 120.224C151.636 116.128 150.441 111.392 150.441 106.016V70.176H167.337V105.632C167.337 108.192 167.764 110.411 168.617 112.288C169.47 114.08 170.75 115.445 172.457 116.384C174.164 117.323 176.169 117.792 178.473 117.792C181.972 117.792 184.702 116.725 186.665 114.592C188.628 112.459 189.609 109.472 189.609 105.632V70.176H206.377V106.016C206.377 111.477 205.182 116.256 202.793 120.352C200.489 124.448 197.204 127.648 192.937 129.952C188.756 132.171 183.934 133.28 178.473 133.28ZM219.73 132V70.176H236.626V132H219.73ZM228.178 60.192C225.447 60.192 223.186 59.296 221.394 57.504C219.602 55.6267 218.706 53.3227 218.706 50.592C218.706 47.9467 219.602 45.6853 221.394 43.808C223.186 41.9307 225.447 40.992 228.178 40.992C230.994 40.992 233.255 41.9307 234.962 43.808C236.754 45.6853 237.65 47.9467 237.65 50.592C237.65 53.3227 236.754 55.6267 234.962 57.504C233.255 59.296 230.994 60.192 228.178 60.192ZM293.08 132V96.544C293.08 92.8747 291.928 89.888 289.624 87.584C287.32 85.28 284.333 84.128 280.664 84.128C278.275 84.128 276.141 84.64 274.264 85.664C272.387 86.688 270.893 88.1387 269.784 90.016C268.76 91.8933 268.248 94.0693 268.248 96.544L261.72 93.216C261.72 88.352 262.744 84.128 264.792 80.544C266.925 76.8747 269.827 74.016 273.496 71.968C277.251 69.92 281.475 68.896 286.168 68.896C290.691 68.896 294.744 70.048 298.328 72.352C301.912 74.5707 304.728 77.5147 306.776 81.184C308.824 84.768 309.848 88.6507 309.848 92.832V132H293.08ZM251.48 132V70.176H268.248V132H251.48ZM352.411 133.28C346.182 133.28 340.55 131.872 335.515 129.056C330.566 126.155 326.598 122.272 323.611 117.408C320.71 112.459 319.259 106.955 319.259 100.896C319.259 94.8373 320.71 89.4187 323.611 84.64C326.512 79.776 330.48 75.936 335.515 73.12C340.55 70.2187 346.139 68.768 352.283 68.768C358.598 68.768 364.23 70.2187 369.179 73.12C374.214 75.936 378.182 79.776 381.083 84.64C383.984 89.4187 385.435 94.8373 385.435 100.896C385.435 106.955 383.984 112.459 381.083 117.408C378.182 122.272 374.214 126.155 369.179 129.056C364.23 131.872 358.64 133.28 352.411 133.28ZM352.283 117.664C355.44 117.664 358.214 116.981 360.603 115.616C363.078 114.165 364.955 112.203 366.235 109.728C367.6 107.168 368.283 104.267 368.283 101.024C368.283 97.7813 367.6 94.9227 366.235 92.448C364.87 89.9733 362.992 88.0533 360.603 86.688C358.214 85.2373 355.44 84.512 352.283 84.512C349.211 84.512 346.48 85.2373 344.091 86.688C341.702 88.0533 339.824 89.9733 338.459 92.448C337.094 94.9227 336.411 97.7813 336.411 101.024C336.411 104.267 337.094 107.168 338.459 109.728C339.824 112.203 341.702 114.165 344.091 115.616C346.48 116.981 349.211 117.664 352.283 117.664ZM433.261 132L417.005 106.912L413.549 104.352L389.485 70.176H409.325L424.301 92.832L427.501 95.264L452.973 132H433.261ZM388.205 132L413.421 96.672L423.021 108.064L407.149 132H388.205ZM428.141 104.224L418.285 92.96L433.005 70.176H451.821L428.141 104.224ZM496.886 132L480.63 106.912L477.174 104.352L453.11 70.176H472.95L487.926 92.832L491.126 95.264L516.598 132H496.886ZM451.83 132L477.046 96.672L486.646 108.064L470.774 132H451.83ZM491.766 104.224L481.91 92.96L496.63 70.176H515.446L491.766 104.224Z" fill="white"/>
<style>
  #test {
    fill: black;
  }

  @media (prefers-color-scheme: dark) {
    #test {
      fill: white;
    }
  }
</style>
</svg>
